<svg width="1524" height="1524" viewBox="0 0 1524 1524" fill="none" xmlns="http://www.w3.org/2000/svg">
  <g transform="translate(0, 177)">
    <path fill-rule="evenodd" clip-rule="evenodd" d="M175.84 12.4443C191.001 -2.82141 215.665 -2.90341 230.927 12.2612C246.19 27.4258 246.272 52.0945 231.11 67.3601C230.52 67.9549 228.793 69.8277 226.087 73.002C221.194 78.7423 215.635 85.832 209.567 94.295C191.81 119.061 173.89 149.615 157.052 186.163C108.266 292.05 78.8265 424.458 78.8265 585.357C78.8265 746.256 108.266 878.663 157.052 984.55C173.89 1021.1 191.81 1051.65 209.567 1076.42C215.635 1084.88 221.194 1091.97 226.087 1097.71C228.793 1100.89 230.52 1102.76 231.11 1103.35C246.272 1118.62 246.19 1143.29 230.927 1158.45C215.665 1173.62 191.001 1173.53 175.84 1158.27C169.297 1151.68 159.003 1139.61 146.258 1121.83C125.671 1093.12 105.246 1058.29 86.2975 1017.16C32.8323 901.119 0.921143 757.594 0.921143 585.357C0.921143 413.119 32.8323 269.595 86.2975 153.55C105.246 112.422 125.671 77.5983 146.258 48.8844C159.003 31.1082 169.297 19.0322 175.84 12.4443V12.4443Z" fill="#90B4FE"/>
    <path fill-rule="evenodd" clip-rule="evenodd" d="M1292.85 67.3601C1277.69 52.0945 1277.77 27.4258 1293.03 12.2612C1308.29 -2.90341 1332.96 -2.82141 1348.12 12.4443C1354.66 19.0322 1364.95 31.1082 1377.7 48.8844C1398.29 77.5983 1418.71 112.422 1437.66 153.55C1491.13 269.595 1523.04 413.119 1523.04 585.357C1523.04 757.594 1491.13 901.119 1437.66 1017.16C1418.71 1058.29 1398.29 1093.12 1377.7 1121.83C1364.95 1139.61 1354.66 1151.68 1348.12 1158.27C1332.96 1173.53 1308.29 1173.62 1293.03 1158.45C1277.77 1143.29 1277.69 1118.62 1292.85 1103.35C1293.44 1102.76 1295.17 1100.89 1297.87 1097.71C1302.76 1091.97 1308.32 1084.88 1314.39 1076.42C1332.15 1051.65 1350.07 1021.1 1366.91 984.55C1415.69 878.663 1445.13 746.256 1445.13 585.357C1445.13 424.458 1415.69 292.05 1366.91 186.163C1350.07 149.615 1332.15 119.061 1314.39 94.295C1308.32 85.832 1302.76 78.7423 1297.87 73.002C1295.17 69.8277 1293.44 67.9549 1292.85 67.3601V67.3601Z" fill="#90B4FE"/>
    <path fill-rule="evenodd" clip-rule="evenodd" d="M1209.23 272.577C1170.75 265.409 1138.34 400.214 1010.58 280.214C868.943 147.279 764.862 280.214 764.862 280.214C764.862 280.214 663.74 413.305 522.108 280.214C428.622 192.474 336.226 237.513 336.226 237.513C284.838 346.227 259.04 465.273 260.814 585.513C259.807 685.238 277.184 784.295 312.075 877.72C345.478 966.087 417.917 1034 508.241 1061.62C592.086 1084.76 678.832 1095.68 765.796 1094.03C847.871 1095.4 929.764 1085.86 1009.33 1065.67C1107.2 1038.39 1185.85 965.473 1220.45 869.928C1253.31 778.743 1269.66 682.434 1268.75 585.513C1270 478.272 1249.77 371.867 1209.23 272.577V272.577Z" fill="#DB9550"/>
    <text x="762" y="650" font-family="RODE Noto Sans Hindi B" font-size="380" text-anchor="middle" dominant-baseline="middle" fill="#333">:mcp</text>
  </g>
</svg>